# xmcd CD database file
#
# Track frame offsets:
#	150
#	15517
#	28465
#	44280
#	60992
#	76172
#	93780
#	111910
#	127967
#	143717
#	159342
#	178422
#	194740
#	213402
#	230267
#	247817
#
# Disc length: 3512 seconds
#
# Revision: 1
# Processed by: cddbd v1.5.2PL0 Copyright (c) Steve Scherf et al.
# Submitted via: CDex 1.70beta2
#
DISCID=cf0db610
DTITLE=Lonestar - 16 Biggest Hits
DYEAR=2006
DGENRE=Country
TTITLE0=Tequila Talkin'
TTITLE1=No News
TTITLE2=Runnin' Away with My Heart
TTITLE3=Come Cryin' To Me
TTITLE4=Say When
TTITLE5=Eveything's Changed
TTITLE6=Amazed
TTITLE7=Smile
TTITLE8=What About Now
TTITLE9=Tell Her
TTITLE10=I'm Already There
TTITLE11=Unusually Unusual
TTITLE12=Not a Day Goes By
TTITLE13=My Front Porch Looking in
TTITLE14=Let's Be Us Again
TTITLE15=Mr. Mom
EXTD=YEAR: 2006
EXTT0=
EXTT1=
EXTT2=
EXTT3=
EXTT4=
EXTT5=
EXTT6=
EXTT7=
EXTT8=
EXTT9=
EXTT10=
EXTT11=
EXTT12=
EXTT13=
EXTT14=
EXTT15=
PLAYORDER=
